<?xml version="1.0" standalone="no"?>
<!DOCTYPE svg PUBLIC "-//W3C//DTD SVG 20010904//EN"
 "http://www.w3.org/TR/2001/REC-SVG-20010904/DTD/svg10.dtd">
<svg version="1.0" xmlns="http://www.w3.org/2000/svg"
 width="300.000000pt" height="400.000000pt" viewBox="0 0 300.000000 400.000000"
 preserveAspectRatio="xMidYMid meet">
<metadata>
Created by potrace 1.10, written by Peter Selinger 2001-2011
</metadata>
<g transform="translate(0.000000,400.000000) scale(0.100000,-0.100000)"
fill="#000000" stroke="none">
<path d="M1470 3309 c-47 -4 -105 -9 -130 -10 -49 -3 -86 -12 -140 -37 -19 -9
-43 -15 -52 -14 -9 0 -19 -6 -22 -14 -3 -8 -11 -14 -17 -14 -7 0 -5 10 5 28
10 15 -6 2 -34 -28 -27 -30 -54 -68 -59 -85 -8 -26 -9 -27 -10 -7 -1 31 -21
18 -21 -14 0 -13 -4 -24 -10 -24 -5 0 -10 5 -10 11 0 5 -4 8 -10 4 -6 -4 -6
-15 0 -30 6 -16 6 -25 0 -25 -6 0 -10 -9 -10 -20 0 -11 -4 -20 -9 -20 -5 0 -7
-9 -4 -20 4 -14 0 -20 -11 -20 -9 0 -16 -6 -17 -12 0 -7 -2 -20 -4 -28 -2 -8
-9 -33 -14 -55 -14 -52 -14 -278 -1 -384 6 -46 9 -86 6 -88 -3 -3 -15 2 -28
11 -33 23 -64 20 -87 -10 -35 -45 -28 -94 28 -193 27 -47 55 -106 62 -131 17
-60 30 -73 86 -80 44 -5 48 -7 51 -35 2 -16 12 -64 23 -107 10 -42 19 -97 19
-122 0 -40 -4 -47 -28 -60 -16 -8 -34 -22 -41 -30 -11 -14 -11 -16 5 -17 11
-1 24 -1 29 0 6 1 -5 -10 -23 -24 -48 -39 -56 -59 -35 -92 47 -75 137 -183
175 -209 24 -17 90 -57 148 -89 82 -47 117 -61 160 -65 50 -5 55 -7 52 -27 -3
-18 6 -13 44 26 26 27 53 47 59 45 6 -3 16 6 22 18 6 13 38 56 72 95 33 40 61
81 61 90 0 27 88 192 141 264 69 94 146 256 171 358 17 74 19 97 10 161 -11
81 -5 230 9 230 15 0 10 28 -11 67 -15 28 -17 40 -8 57 6 11 12 51 13 89 1 49
7 73 19 85 16 16 17 16 10 0 -3 -11 -1 -18 5 -18 6 0 11 17 12 38 0 31 2 34
10 17 8 -17 8 -16 4 7 -3 15 -1 29 4 33 10 5 8 41 -4 112 -5 25 -77 140 -112
176 -69 72 -141 125 -230 168 -57 27 -109 49 -116 49 -7 0 -22 7 -33 15 -21
16 -44 16 -174 4z m186 -50 c3 -5 16 -9 30 -9 14 0 23 -4 19 -9 -3 -5 21 -17
52 -26 32 -9 71 -24 88 -32 27 -15 28 -17 10 -23 -16 -6 -12 -8 19 -14 21 -4
36 -10 33 -13 -3 -3 13 -22 36 -42 59 -50 88 -80 115 -115 28 -38 29 -56 1
-25 -20 23 -20 23 1 -8 12 -18 26 -33 31 -33 6 0 7 -4 4 -10 -3 -5 -1 -18 4
-28 14 -26 22 -104 10 -97 -5 4 -9 18 -10 33 0 22 -3 18 -14 -17 -8 -25 -21
-48 -29 -53 -11 -6 -14 -17 -10 -38 5 -23 1 -34 -22 -55 -16 -15 -24 -24 -17
-21 6 4 14 2 18 -3 3 -6 12 -8 20 -4 17 6 18 -7 9 -56 -5 -22 -12 -31 -26 -31
-15 0 -18 -5 -13 -20 4 -11 2 -20 -4 -20 -6 0 -11 6 -11 13 0 9 -2 9 -8 0 -4
-7 -18 -11 -30 -8 -12 2 -22 -1 -22 -7 0 -5 -6 -8 -14 -5 -8 3 -29 2 -48 -3
-18 -5 -45 -11 -59 -14 -28 -6 -72 -42 -82 -69 -8 -22 5 -22 34 2 15 12 30 16
39 11 8 -4 42 -1 75 7 57 13 150 17 167 7 10 -7 -8 -164 -19 -164 -3 0 -18 10
-35 21 -39 29 -118 38 -118 15 0 -9 -4 -16 -10 -16 -5 0 -10 9 -10 20 0 16 -5
19 -24 14 -16 -4 -25 -1 -29 10 -12 30 -58 -14 -49 -47 1 -5 -2 -6 -7 -3 -5 4
-12 2 -15 -3 -9 -14 25 -22 86 -22 29 0 67 0 83 0 17 0 48 3 71 6 30 5 43 3
53 -9 10 -12 11 -16 1 -16 -10 0 -10 -3 0 -15 7 -8 9 -15 6 -15 -4 0 -4 -5 0
-12 4 -7 8 -21 9 -32 1 -12 3 -25 5 -31 9 -23 -14 -133 -37 -184 -14 -30 -26
-61 -27 -69 -1 -7 -7 -17 -12 -20 -10 -7 -34 -55 -57 -112 -8 -19 -27 -49 -43
-66 -28 -29 -79 -118 -79 -139 -1 -5 -13 -31 -29 -57 -15 -26 -29 -54 -30 -63
-1 -8 -14 -28 -29 -43 -15 -15 -27 -33 -27 -39 0 -16 -114 -113 -166 -142 -45
-25 -45 -25 -79 -7 -18 10 -36 17 -38 15 -2 -2 -11 2 -20 9 -9 8 -42 22 -75
31 -68 21 -135 65 -203 134 -38 38 -49 57 -55 94 -8 57 1 202 14 215 6 6 19 0
35 -16 39 -39 40 -32 7 28 -23 40 -33 73 -37 123 -3 37 -9 70 -12 73 -3 3 -7
20 -9 39 -1 18 -9 43 -17 55 -9 11 -20 38 -26 60 -9 32 -12 36 -22 22 -17 -22
-57 -10 -57 18 0 12 -9 27 -19 33 -28 18 -54 116 -46 177 4 41 3 48 -7 38 -7
-7 -13 -32 -13 -57 0 -53 -11 -45 -35 26 -27 80 3 120 63 85 24 -14 32 -14 39
-4 6 8 11 9 14 3 3 -5 13 -28 22 -50 l18 -40 0 132 c-1 113 1 134 16 145 18
14 34 78 20 78 -4 0 -18 -22 -29 -50 -37 -86 -44 -66 -41 118 3 153 5 171 28
217 13 28 23 58 22 68 -1 9 3 17 8 17 6 0 10 6 10 14 0 7 7 19 15 26 9 7 14
15 12 17 -3 2 20 30 50 62 49 53 62 62 136 85 134 42 434 65 453 35z m157
-969 c4 -15 0 -20 -13 -20 -25 0 -36 20 -19 31 21 13 26 11 32 -11z m123 -1
c7 -12 -12 -29 -34 -29 -10 0 -10 5 -2 20 12 22 25 26 36 9z"/>
<path d="M1563 2913 c1 -23 34 -42 78 -46 13 -1 34 -12 47 -24 12 -13 30 -23
40 -23 9 0 28 -3 42 -5 l25 -6 -25 11 c-13 6 -27 14 -30 19 -10 15 -86 50
-122 56 -21 3 -42 13 -47 23 -9 15 -10 14 -8 -5z"/>
<path d="M1847 2830 c-6 -22 3 -26 19 -10 7 7 19 3 37 -14 15 -14 27 -20 27
-14 0 15 -48 58 -64 58 -8 0 -16 -9 -19 -20z"/>
<path d="M2016 2742 c-14 -42 -57 -69 -116 -71 -18 -1 -21 -4 -11 -10 19 -12
69 4 99 31 27 26 46 57 39 65 -3 2 -8 -4 -11 -15z"/>
<path d="M1154 2529 c-27 -22 -57 -49 -66 -61 -20 -22 -24 -58 -7 -58 5 0 8 4
5 9 -3 5 9 15 27 22 17 7 36 15 41 17 5 3 6 0 2 -7 -4 -6 -4 -11 1 -11 4 -1
53 -3 108 -5 55 -3 126 -7 158 -9 31 -2 57 -2 57 2 0 3 -8 14 -17 25 -17 19
-17 20 4 8 12 -6 25 -20 28 -31 3 -11 15 -25 26 -30 23 -13 23 -11 4 27 -21
43 -42 58 -84 60 -20 1 -54 4 -76 7 -91 13 -110 12 -109 -5 1 -12 -9 -16 -43
-18 -25 0 -42 3 -39 8 4 5 -1 17 -10 25 -8 9 -12 16 -7 16 12 1 57 40 51 45
-2 2 -26 -14 -54 -36z"/>
<path d="M1191 2506 c-8 -10 -4 -13 17 -14 17 0 29 5 29 12 0 16 -33 18 -46 2z"/>
<path d="M1460 2360 c0 -5 6 -13 13 -17 20 -12 47 -55 47 -75 0 -10 -18 -29
-41 -44 -22 -14 -38 -28 -35 -31 3 -3 -2 -12 -10 -20 -22 -23 -11 -26 32 -8
24 9 48 30 63 52 21 32 22 40 12 74 -13 43 -81 102 -81 69z"/>
<path d="M1218 2343 c-10 -2 -18 -8 -18 -13 0 -5 6 -7 13 -5 6 3 39 9 72 14
l60 9 -55 0 c-30 0 -63 -2 -72 -5z"/>
<path d="M1725 2330 c-19 -21 -38 -100 -24 -100 5 0 9 -6 9 -12 0 -7 14 -21
30 -30 38 -21 38 -17 0 20 -30 30 -38 59 -22 78 10 11 33 64 28 64 -1 0 -11
-9 -21 -20z"/>
<path d="M1373 2312 c-13 -2 -23 -10 -23 -18 0 -8 -5 -14 -11 -14 -6 0 -9 7
-5 15 6 17 -30 20 -121 9 -58 -7 -73 -30 -25 -39 15 -3 44 -10 64 -16 21 -5
57 -10 81 -11 49 -1 147 12 147 19 0 21 -76 60 -107 55z m-95 -24 c16 -16 15
-28 -3 -28 -8 0 -19 9 -25 20 -8 15 -8 20 3 20 7 0 18 -5 25 -12z m146 -1 c16
-12 15 -14 -18 -24 -36 -11 -41 -8 -30 21 7 19 24 20 48 3z"/>
<path d="M915 2265 c-3 -8 -7 -22 -10 -30 -8 -25 11 -17 23 10 15 32 15 35 2
35 -6 0 -13 -7 -15 -15z"/>
<path d="M943 2253 c-7 -15 -13 -33 -13 -41 0 -31 25 -2 27 31 1 20 1 37 0 37
-1 0 -8 -12 -14 -27z"/>
<path d="M897 2166 c-7 -17 1 -26 22 -26 18 0 45 -36 36 -49 -3 -5 4 -7 15 -4
18 5 18 7 5 32 -14 28 -45 59 -45 46 0 -4 -6 -2 -14 4 -10 9 -15 8 -19 -3z"/>
<path d="M1424 2013 c-13 -12 -24 -32 -24 -45 0 -48 61 -117 93 -105 7 3 -1
10 -18 16 -35 15 -45 27 -45 63 0 27 48 76 59 61 3 -4 16 -13 28 -20 17 -10
24 -9 32 1 19 23 3 45 -30 39 -16 -2 -29 0 -29 4 0 17 -42 8 -66 -14z"/>
<path d="M1747 2034 c-9 -10 15 -54 30 -54 8 0 12 -4 9 -8 -2 -4 4 -8 15 -8
25 0 24 8 -7 45 -26 31 -35 36 -47 25z"/>
<path d="M1510 1899 c0 -5 1 -9 3 -9 1 0 26 -9 55 -19 54 -20 72 -14 25 9 -45
20 -83 29 -83 19z"/>
<path d="M1633 1765 c-18 -5 -33 -13 -33 -19 0 -5 3 -6 6 -3 4 3 15 2 25 -3
11 -7 20 -7 24 0 3 5 13 7 23 4 10 -4 13 -3 6 3 -6 4 -13 13 -15 18 -3 7 -15
7 -36 0z"/>
<path d="M1821 1736 c-7 -8 -23 -17 -37 -20 -14 -4 -35 -15 -46 -25 -10 -10
-33 -22 -50 -25 -45 -9 -158 -7 -158 2 0 5 -13 7 -29 4 -16 -2 -32 1 -35 7 -4
6 -16 11 -27 11 -10 0 -19 4 -19 9 0 10 -68 36 -75 29 -2 -2 15 -24 37 -48 25
-26 43 -40 46 -32 3 9 12 6 32 -8 18 -13 31 -16 35 -10 3 5 23 8 43 5 81 -11
128 -12 144 -4 10 5 31 11 48 13 33 4 66 28 75 56 3 9 15 21 27 27 13 6 17 12
11 16 -6 4 -16 1 -22 -7z"/>
<path d="M1480 1710 c-36 -10 161 -24 206 -16 20 4 34 9 33 11 -8 7 -215 11
-239 5z"/>
<path d="M1301 1423 c37 -46 44 -53 56 -53 7 0 13 -5 13 -11 0 -5 5 -7 10 -4
6 3 10 2 10 -3 0 -5 9 -12 20 -15 29 -8 25 0 -17 27 -21 13 -51 36 -67 50 -33
30 -45 34 -25 9z"/>
<path d="M690 1333 c0 -34 30 -62 103 -96 73 -34 150 -82 145 -90 -2 -2 27
-25 65 -51 37 -25 67 -43 67 -40 0 11 -82 104 -91 104 -5 0 -42 20 -82 44 -98
59 -133 76 -155 76 -20 0 -36 25 -27 40 3 4 -2 13 -10 20 -12 10 -15 9 -15 -7z"/>
<path d="M845 1331 c-19 -8 -19 -8 2 -15 12 -4 32 -19 43 -33 11 -14 20 -23
20 -20 0 6 -41 78 -43 76 -1 0 -11 -4 -22 -8z"/>
<path d="M547 1284 c-9 -15 30 -55 120 -123 45 -34 86 -69 92 -79 5 -9 13 -14
17 -10 10 10 -41 66 -118 128 -37 30 -64 58 -62 62 3 4 -4 8 -15 8 -10 0 -21
5 -23 12 -3 8 -7 8 -11 2z"/>
<path d="M1652 1181 c-7 -21 -16 -29 -25 -25 -8 3 -18 1 -21 -4 -3 -5 12 -17
34 -27 44 -20 49 -29 23 -44 -16 -8 -14 -10 10 -16 15 -4 27 -11 27 -16 0 -5
15 -9 34 -9 37 0 96 -41 96 -66 0 -8 7 -14 15 -14 8 0 15 -4 15 -10 0 -15 53
-61 83 -72 23 -8 57 -59 57 -85 0 -18 -79 30 -157 95 -27 21 -67 49 -91 61
-47 24 -77 47 -134 104 -37 36 -42 47 -39 74 1 8 -5 10 -14 7 -40 -16 7 -87
104 -154 19 -13 62 -48 94 -77 33 -29 80 -62 104 -73 24 -11 64 -33 88 -49 38
-25 44 -27 48 -13 3 10 5 5 6 -10 0 -16 5 -28 10 -28 5 0 15 -17 22 -37 7 -21
23 -55 36 -75 13 -21 20 -38 16 -38 -5 0 -3 -4 2 -8 6 -4 19 -27 30 -51 11
-25 41 -65 67 -90 27 -25 48 -51 48 -58 0 -7 4 -13 9 -13 11 0 151 -138 151
-149 0 -5 7 -11 15 -15 22 -8 18 7 -9 39 -13 15 -22 35 -19 44 4 14 3 14 -6 1
-9 -13 -13 -11 -28 10 -9 13 -43 52 -75 86 -32 34 -74 81 -92 105 -32 42 -137
259 -177 366 -16 41 -29 58 -67 82 -26 16 -74 57 -107 91 -46 47 -66 60 -90
60 -43 0 -52 9 -60 60 -11 67 -20 78 -33 41z"/>
<path d="M538 1195 c-3 -3 27 -38 66 -78 71 -72 155 -189 275 -384 59 -95 111
-159 111 -136 0 5 -21 36 -46 69 -25 32 -64 91 -87 129 -57 100 -111 179 -181
266 -62 77 -129 142 -138 134z"/>
<path d="M394 1152 c8 -14 67 -21 63 -8 -2 6 -18 12 -36 14 -19 2 -31 -1 -27
-6z"/>
<path d="M475 1130 c3 -5 12 -10 20 -10 7 0 43 -30 79 -67 64 -66 100 -85 50
-28 -15 17 -36 42 -48 56 -33 38 -121 81 -101 49z"/>
<path d="M1400 1092 l-47 -49 -37 19 -37 19 -49 -42 c-28 -23 -50 -45 -50 -48
0 -3 16 -11 36 -17 24 -8 32 -8 25 -1 -14 14 -14 40 -1 32 6 -3 10 0 10 8 0 8
9 22 20 32 18 17 21 17 55 -3 19 -12 35 -17 35 -11 0 6 4 8 8 5 5 -3 19 6 31
20 18 20 25 23 41 14 12 -6 18 -15 15 -19 -3 -5 2 -22 10 -37 8 -16 15 -24 15
-19 0 6 4 5 8 -2 4 -6 21 -15 37 -18 l30 -8 -40 44 c-22 24 -44 47 -50 51 -5
4 -8 23 -7 43 2 19 0 35 -4 35 -4 0 -29 -22 -54 -48z"/>
<path d="M338 1113 c-28 -34 -62 -87 -50 -80 11 7 74 97 68 97 -1 0 -10 -8
-18 -17z"/>
<path d="M105 1028 c-5 -12 -24 -32 -42 -43 -27 -17 -63 -62 -63 -78 0 -3 27
20 61 52 38 36 60 65 57 75 -2 14 -5 13 -13 -6z"/>
<path d="M137 1003 c-8 -7 21 -43 35 -43 4 0 8 5 8 10 0 6 -7 10 -15 10 -9 0
-12 6 -9 15 6 15 -7 21 -19 8z"/>
<path d="M294 985 c73 -115 197 -257 211 -243 3 3 -20 33 -52 68 -32 34 -69
78 -83 99 -37 55 -63 86 -80 96 -11 7 -10 1 4 -20z"/>
<path d="M1333 988 c-5 -7 -13 -22 -16 -33 -6 -18 -5 -18 5 -3 11 16 15 14 45
-19 38 -41 37 -39 19 -46 -10 -4 -13 -1 -9 9 4 10 0 12 -10 8 -20 -7 -10 -34
12 -34 9 0 21 -8 28 -19 27 -44 235 -162 248 -141 7 11 -10 23 -90 63 -99 50
-132 82 -164 157 -28 65 -49 83 -68 58z"/>
<path d="M190 953 c0 -5 3 -13 7 -17 4 -3 8 -16 10 -27 5 -36 30 -73 85 -126
53 -52 117 -80 104 -46 -11 28 -69 113 -74 108 -3 -2 9 -26 26 -52 17 -26 29
-49 27 -51 -5 -6 -55 29 -55 39 0 5 -22 33 -50 62 -27 29 -50 62 -50 73 0 12
-7 27 -15 34 -8 7 -15 8 -15 3z"/>
<path d="M1632 941 c4 -30 42 -58 54 -40 4 8 3 9 -4 5 -7 -4 -12 -3 -12 2 0 5
-9 20 -21 33 l-21 24 4 -24z"/>
<path d="M1321 858 c-1 -20 -21 -25 -21 -5 0 6 -5 4 -11 -7 -8 -12 -8 -25 -1
-40 6 -12 11 -15 11 -7 1 8 8 22 17 32 9 10 14 24 11 31 -4 8 -6 7 -6 -4z"/>
<path d="M2427 762 c-5 -57 -6 -106 -4 -109 9 -8 19 98 15 157 -2 46 -4 37
-11 -48z"/>
<path d="M1277 697 c-33 -65 -34 -129 -2 -138 11 -3 18 -12 16 -20 -2 -8 -6
-33 -8 -56 -5 -39 -3 -42 33 -65 22 -14 65 -37 97 -53 l57 -29 0 -66 c1 -76
17 -261 25 -268 13 -13 13 13 0 158 -7 85 -12 156 -10 158 4 4 119 -53 152
-75 51 -36 113 -64 186 -82 40 -10 91 -28 114 -39 45 -24 117 -87 125 -112 3
-8 9 -12 13 -8 13 12 -15 64 -51 97 -19 18 -34 28 -34 24 0 -3 -10 3 -23 15
-13 12 -27 19 -30 15 -4 -3 -7 -2 -7 4 0 6 -23 16 -50 23 -28 7 -52 15 -55 19
-2 4 -14 7 -27 6 -13 -1 -25 1 -28 4 -3 3 -28 18 -57 32 -29 15 -49 29 -46 33
4 3 0 6 -8 6 -8 0 -20 5 -27 12 -6 6 -22 13 -34 15 -12 2 -54 21 -93 42 -38
21 -86 47 -105 57 -19 11 -38 23 -41 27 -3 5 -9 8 -13 8 -19 -3 -25 1 -31 19
-3 10 -1 28 4 39 11 19 12 19 68 -10 32 -16 63 -29 69 -29 5 0 19 -8 30 -18
10 -10 27 -21 36 -25 10 -3 15 -12 12 -21 -7 -18 15 -31 29 -17 8 8 6 11 -7
11 -9 0 -15 4 -12 8 12 19 -31 56 -113 96 -136 68 -156 79 -143 84 8 2 9 9 3
20 -13 25 -2 71 20 83 15 8 26 5 50 -11 16 -12 45 -26 64 -31 37 -11 92 -55
87 -71 -1 -5 2 -7 7 -4 12 8 9 30 -8 50 -7 8 -47 36 -89 61 -43 25 -86 52 -97
60 -20 14 -22 12 -48 -38z"/>
<path d="M400 705 c0 -15 61 -137 66 -133 3 4 1 14 -4 25 -6 10 -20 39 -31 66
-19 41 -31 58 -31 42z"/>
<path d="M200 680 c1 -21 17 -26 45 -14 17 7 26 14 20 15 -23 5 -65 4 -65 -1z"/>
<path d="M2709 615 c-4 -5 -12 -64 -19 -130 -6 -66 -19 -145 -27 -175 -19 -70
-19 -70 -40 -100 l-17 -25 21 18 c40 35 65 114 80 256 13 131 14 177 2 156z"/>
<path d="M660 607 c0 -14 45 -87 54 -87 8 0 -3 20 -41 75 -7 11 -13 16 -13 12z"/>
<path d="M470 553 c0 -10 47 -116 116 -260 19 -39 34 -75 34 -80 0 -5 7 -18
15 -29 13 -16 13 -13 -1 21 -8 22 -24 59 -35 82 -10 24 -19 45 -19 48 0 2 -18
43 -40 90 -22 47 -40 89 -40 93 -1 12 -30 47 -30 35z"/>
<path d="M0 406 c0 -28 63 -96 89 -96 9 0 -3 19 -34 52 -28 29 -51 55 -52 57
-2 2 -3 -3 -3 -13z"/>
<path d="M50 230 c0 -7 24 -38 53 -70 28 -32 63 -81 77 -109 14 -28 28 -51 33
-51 11 0 9 6 -28 83 -24 51 -48 84 -85 115 -27 24 -50 38 -50 32z"/>
<path d="M2457 177 c21 -23 59 -45 49 -28 -4 6 0 11 11 11 10 0 24 4 31 9 9 5
-8 11 -47 18 -60 9 -61 9 -44 -10z"/>
<path d="M2541 132 c-22 -3 -16 -9 45 -48 43 -27 81 -44 100 -44 17 0 43 -9
57 -20 14 -11 34 -20 46 -20 18 0 16 6 -21 65 l-42 65 -19 -31 c-17 -27 -24
-30 -51 -25 -17 3 -39 16 -48 27 -10 12 -18 18 -18 13 0 -4 -6 -1 -12 7 -8 9
-24 13 -37 11z"/>
<path d="M1589 20 c-13 -10 -19 -19 -12 -20 6 0 15 5 18 10 3 6 15 10 26 10
11 0 17 5 14 10 -9 15 -20 12 -46 -10z"/>
<path d="M0 16 c0 -13 13 -16 78 -15 l77 2 -67 7 c-37 5 -72 11 -78 15 -5 3
-10 -1 -10 -9z"/>
</g>
</svg>
